<svg width="96" height="96" viewBox="0 0 96 96" fill="none" xmlns="http://www.w3.org/2000/svg">
<path d="M82 12H14V16H82V12Z" fill="#06038D"/>
<path d="M82 96H14C10.287 96 6.72601 94.525 4.1005 91.8995C1.475 89.274 0 85.713 0 82H4C4 84.6522 5.05357 87.1957 6.92893 89.0711C8.8043 90.9464 11.3478 92 14 92H82C84.6522 92 87.1957 90.9464 89.0711 89.0711C90.9464 87.1957 92 84.6522 92 82H96C96 85.713 94.525 89.274 91.8995 91.8995C89.274 94.525 85.713 96 82 96Z" fill="#06038D"/>
<path d="M2 84C1.46957 84 0.960859 83.7893 0.585786 83.4142C0.210714 83.0391 0 82.5304 0 82V14C0 10.287 1.475 6.72601 4.1005 4.1005C6.72601 1.475 10.287 0 14 0C14.5304 0 15.0391 0.210714 15.4142 0.585786C15.7893 0.960859 16 1.46957 16 2V70C16 70.5304 15.7893 71.0391 15.4142 71.4142C15.0391 71.7893 14.5304 72 14 72C11.3478 72 8.8043 73.0536 6.92893 74.9289C5.05357 76.8043 4 79.3478 4 82C4 82.5304 3.78929 83.0391 3.41421 83.4142C3.03914 83.7893 2.53043 84 2 84ZM12 4.2C9.74127 4.66106 7.71121 5.88836 6.25339 7.67419C4.79557 9.46002 3.99953 11.6947 4 14V72.22C6.15045 70.038 8.96412 68.6311 12 68.22V4.2Z" fill="#06038D"/>
<path d="M94 84C93.4696 84 92.9609 83.7893 92.5858 83.4142C92.2107 83.0391 92 82.5304 92 82C92 79.3478 90.9464 76.8043 89.0711 74.9289C87.1957 73.0536 84.6522 72 82 72C81.4696 72 80.9609 71.7893 80.5858 71.4142C80.2107 71.0391 80 70.5304 80 70V2C80 1.46957 80.2107 0.960859 80.5858 0.585786C80.9609 0.210714 81.4696 0 82 0C85.713 0 89.274 1.475 91.8995 4.1005C94.525 6.72601 96 10.287 96 14V82C96 82.5304 95.7893 83.0391 95.4142 83.4142C95.0392 83.7893 94.5304 84 94 84ZM84 68.14C87.0359 68.5511 89.8496 69.958 92 72.14V14C92.0005 11.6947 91.2044 9.46002 89.7466 7.67419C88.2888 5.88836 86.2587 4.66106 84 4.2V68.14Z" fill="#06038D"/>
<path d="M68 82H28C27.4696 82 26.9609 81.7893 26.5858 81.4142C26.2107 81.0391 26 80.5304 26 80V42H30V78H66V44.82L51.18 30H30V36H26V28C26 27.4695 26.2107 26.9608 26.5858 26.5858C26.9609 26.2107 27.4696 26 28 26H52C52.2632 25.9985 52.5242 26.0489 52.7678 26.1484C53.0115 26.248 53.2331 26.3946 53.42 26.58L69.42 42.58C69.6054 42.7669 69.752 42.9885 69.8516 43.2322C69.9511 43.4758 70.0015 43.7368 70 44V80C70 80.5304 69.7893 81.0391 69.4142 81.4142C69.0392 81.7893 68.5305 82 68 82Z" fill="#06038D"/>
<path d="M68 48H40V52H68V48Z" fill="#06038D"/>
<path d="M34 48H28V52H34V48Z" fill="#06038D"/>
<path d="M50 68H46V80H50V68Z" fill="#06038D"/>
<path d="M50 50H46V62H50V50Z" fill="#06038D"/>
</svg>
