<svg width="15" height="9" viewBox="0 0 15 9" fill="none" xmlns="http://www.w3.org/2000/svg">
<path d="M5.25 7.90625L5.5 7.6875C5.625 7.53125 5.625 7.3125 5.5 7.15625L2.875 4.53125H14.625C14.8125 4.53125 15 4.375 15 4.15625V3.84375C15 3.65625 14.8125 3.46875 14.625 3.46875H2.875L5.5 0.875C5.625 0.71875 5.625 0.5 5.5 0.34375L5.25 0.125C5.125 -0.03125 4.875 -0.03125 4.75 0.125L1.09375 3.75C0.9375 3.90625 0.9375 4.125 1.09375 4.28125L4.75 7.90625C4.875 8.0625 5.125 8.0625 5.25 7.90625Z" fill="#CBA052"/>
</svg>
