<svg width="15" height="15" viewBox="0 0 15 15" fill="none" xmlns="http://www.w3.org/2000/svg">
<path d="M9.05859 7.46484L13.8867 2.68359L14.8711 1.69922C15.0117 1.55859 15.0117 1.32422 14.8711 1.13672L13.8398 0.105469C13.6523 -0.0351562 13.418 -0.0351562 13.2773 0.105469L7.51172 5.91797L1.69922 0.105469C1.55859 -0.0351562 1.32422 -0.0351562 1.13672 0.105469L0.105469 1.13672C-0.0351562 1.32422 -0.0351562 1.55859 0.105469 1.69922L5.91797 7.46484L0.105469 13.2773C-0.0351562 13.418 -0.0351562 13.6523 0.105469 13.8398L1.13672 14.8711C1.32422 15.0117 1.55859 15.0117 1.69922 14.8711L7.51172 9.05859L12.293 13.8867L13.2773 14.8711C13.418 15.0117 13.6523 15.0117 13.8398 14.8711L14.8711 13.8398C15.0117 13.6523 15.0117 13.418 14.8711 13.2773L9.05859 7.46484Z" fill="#CBA052"/>
</svg>
