<svg width="96" height="96" viewBox="0 0 96 96" fill="none" xmlns="http://www.w3.org/2000/svg">
<path d="M90 85H6C4.4087 85 2.88258 84.3591 1.75736 83.2182C0.632141 82.0774 0 80.5301 0 78.9167L0 74.8611C0 73.2477 0.632141 71.7004 1.75736 70.5595C2.88258 69.4187 4.4087 68.7778 6 68.7778H90C91.5913 68.7778 93.1174 69.4187 94.2426 70.5595C95.3679 71.7004 96 73.2477 96 74.8611V78.9167C96 80.5301 95.3679 82.0774 94.2426 83.2182C93.1174 84.3591 91.5913 85 90 85ZM6 72.8333C5.46957 72.8333 4.96086 73.047 4.58579 73.4272C4.21071 73.8075 4 74.3233 4 74.8611V78.9167C4 79.4545 4.21071 79.9702 4.58579 80.3505C4.96086 80.7308 5.46957 80.9444 6 80.9444H90C90.5304 80.9444 91.0391 80.7308 91.4142 80.3505C91.7893 79.9702 92 79.4545 92 78.9167V74.8611C92 74.3233 91.7893 73.8075 91.4142 73.4272C91.0391 73.047 90.5304 72.8333 90 72.8333H6Z" fill="#06038D"/>
<path d="M56 72.8333H40C39.5055 72.8363 39.0275 72.6536 38.6582 72.3203C38.2888 71.987 38.0543 71.5269 38 71.0286L32 14.2508C31.9689 13.9664 31.9976 13.6785 32.0841 13.4062C32.1706 13.1338 32.313 12.8831 32.5019 12.6705C32.6908 12.4579 32.922 12.2882 33.1802 12.1726C33.4383 12.0571 33.7177 11.9982 34 12H62C62.2822 11.9982 62.5616 12.0571 62.8198 12.1726C63.078 12.2882 63.3091 12.4579 63.498 12.6705C63.6869 12.8831 63.8293 13.1338 63.9158 13.4062C64.0023 13.6785 64.031 13.9664 64 14.2508L58 71.0286C57.9456 71.5269 57.7111 71.987 57.3418 72.3203C56.9724 72.6536 56.4944 72.8363 56 72.8333ZM41.8 68.7778H54.2L59.78 16.0555H36.22L41.8 68.7778Z" fill="#06038D"/>
<path d="M24 30.25L21.58 27.0056C25.4114 24.0892 29.688 21.8288 34.24 20.3139L35.5 24.1667C31.3614 25.536 27.4754 27.5917 24 30.25Z" fill="#06038D"/>
<path d="M90 72.8333H6.00001C5.46958 72.8333 4.96087 72.6197 4.5858 72.2394C4.21072 71.8591 4.00001 71.3433 4.00001 70.8055V62.6944C3.99757 54.5445 6.19717 46.5496 10.36 39.5778L13.78 41.6055C9.98342 47.9652 7.98393 55.2606 8.00001 62.6944V68.7778H88V62.6944C88.0051 55.2812 86.006 48.0084 82.22 41.6664L85.64 39.6386C89.7923 46.5928 91.9915 54.5652 92 62.6944V70.8055C92 71.3433 91.7893 71.8591 91.4142 72.2394C91.0391 72.6197 90.5304 72.8333 90 72.8333Z" fill="#06038D"/>
<path d="M72 30.25C68.5162 27.5935 64.6239 25.5381 60.48 24.1667L61.74 20.3139C66.3003 21.833 70.5839 24.1004 74.42 27.0258L72 30.25Z" fill="#06038D"/>
<path d="M77.84 59.4094L74.16 57.8683L83.58 34.9139L75.22 27.8369L70 50.9739L66 50.0817L72 23.7205C72.0736 23.3816 72.2318 23.0676 72.4595 22.8084C72.6871 22.5492 72.9765 22.3536 73.3 22.2403C73.6351 22.1144 73.9974 22.0818 74.3491 22.146C74.7009 22.2102 75.0292 22.3688 75.3 22.6053L87.3 32.7441C87.626 33.0218 87.8561 33.3977 87.9568 33.8171C88.0575 34.2365 88.0236 34.6776 87.86 35.0761L77.84 59.4094Z" fill="#06038D"/>
<path d="M18.16 59.4094L8.15998 35.0761C7.99636 34.6776 7.96244 34.2365 8.06316 33.8171C8.16388 33.3977 8.39398 33.0218 8.71998 32.7441L20.72 22.6053C20.9908 22.3688 21.3191 22.2102 21.6708 22.146C22.0226 22.0818 22.3849 22.1144 22.72 22.2403C23.0435 22.3536 23.3329 22.5492 23.5605 22.8084C23.7881 23.0676 23.9463 23.3816 24.02 23.7205L30.02 50.0817L26 50.9739L20.78 27.8369L12.42 34.9139L21.84 57.8683L18.16 59.4094Z" fill="#06038D"/>
</svg>
