<svg width="60" height="60" viewBox="0 0 60 60" fill="none" xmlns="http://www.w3.org/2000/svg">
<path d="M29.9999 15.3778C21.8827 15.3778 15.2705 21.9419 15.2705 30.0001C15.2705 38.0583 21.8827 44.6223 29.9999 44.6223C38.1172 44.6223 44.7294 38.0583 44.7294 30.0001C44.7294 21.9419 38.1172 15.3778 29.9999 15.3778ZM29.9999 41.0465C23.8782 41.0465 18.8725 36.0941 18.8725 30.0001C18.8725 23.9061 23.8613 18.9536 29.9999 18.9536C36.1386 18.9536 41.1273 23.9061 41.1273 30.0001C41.1273 36.0941 36.1217 41.0465 29.9999 41.0465Z" fill="#332F30"/>
<path d="M29.9999 12.6749C30.9976 12.6749 31.8094 12.0201 31.8094 11.2143V1.46055C31.8094 0.654728 30.9976 0 29.9999 0C29.0022 0 28.1904 0.654728 28.1904 1.46055V11.2143C28.1904 12.0201 29.0022 12.6749 29.9999 12.6749Z" fill="#332F30"/>
<path d="M13.0552 29.9833C13.0552 28.9928 12.3788 28.187 11.5502 28.187H1.50507C0.676438 28.187 0 28.9928 0 29.9833C0 30.9738 0.676438 31.7796 1.50507 31.7796H11.5502C12.3788 31.7796 13.0552 30.9738 13.0552 29.9833Z" fill="#332F30"/>
<path d="M29.9999 47.3251C29.0022 47.3251 28.1904 47.9798 28.1904 48.7856V58.5394C28.1904 59.3452 29.0022 59.9999 29.9999 59.9999C30.9976 59.9999 31.8094 59.3452 31.8094 58.5394V48.7856C31.8094 47.9798 30.9976 47.3251 29.9999 47.3251Z" fill="#332F30"/>
<path d="M15.3042 41.9698L8.35384 48.8529C7.77887 49.4237 7.88034 50.4645 8.5906 51.1696C9.30086 51.8747 10.3324 51.9754 10.9243 51.4046L17.8747 44.5048C18.4497 43.934 18.3482 42.8932 17.638 42.1881C16.9108 41.5166 15.8792 41.399 15.3042 41.9698Z" fill="#332F30"/>
<path d="M15.3213 18.0133C15.8963 18.5841 16.9448 18.4834 17.655 17.7783C18.3653 17.0732 18.4668 16.0491 17.8918 15.4615L10.9414 8.56171C10.3664 7.99092 9.31795 8.09165 8.60769 8.79674C7.89743 9.50183 7.79596 10.5259 8.37093 11.1135L15.3213 18.0133Z" fill="#332F30"/>
<path d="M58.495 28.2206H48.4499C47.6213 28.2206 46.9448 29.0264 46.9448 30.0169C46.9448 31.0074 47.6213 31.8132 48.4499 31.8132H58.495C59.3236 31.8132 60.0001 31.0074 60.0001 30.0169C60.0001 29.0264 59.3236 28.2206 58.495 28.2206Z" fill="#332F30"/>
<path d="M44.6955 18.0301L51.6459 11.1303C52.2209 10.5595 52.1194 9.51868 51.4092 8.81359C50.6989 8.10849 49.6673 8.00777 49.0755 8.57855L42.1251 15.4784C41.5501 16.0492 41.6516 17.09 42.3618 17.7951C43.089 18.4834 44.1206 18.6009 44.6955 18.0301Z" fill="#332F30"/>
<path d="M44.6787 41.9865C44.1037 41.4157 43.0553 41.5165 42.345 42.2215C41.6347 42.9266 41.5333 43.9507 42.1082 44.5383L49.0586 51.4381C49.6336 52.0089 50.6821 51.9082 51.3923 51.2031C52.1026 50.498 52.2041 49.4739 51.6291 48.8863L44.6787 41.9865Z" fill="#332F30"/>
</svg>
