<svg width="16" height="15" viewBox="0 0 16 15" fill="none" xmlns="http://www.w3.org/2000/svg">
<path d="M14.5625 8.625H12.0195L13.3047 7.36719C14.125 6.54688 13.5234 5.125 12.375 5.125H10.625V2.0625C10.625 1.35156 10.0234 0.75 9.3125 0.75H6.6875C5.94922 0.75 5.375 1.35156 5.375 2.0625V5.125H3.625C2.44922 5.125 1.84766 6.54688 2.69531 7.36719L3.95312 8.625H1.4375C0.699219 8.625 0.125 9.22656 0.125 9.9375V13.4375C0.125 14.1758 0.699219 14.75 1.4375 14.75H14.5625C15.2734 14.75 15.875 14.1758 15.875 13.4375V9.9375C15.875 9.22656 15.2734 8.625 14.5625 8.625ZM3.625 6.4375H6.6875V2.0625H9.3125V6.4375H12.375L8 10.8125L3.625 6.4375ZM14.5625 13.4375H1.4375V9.9375H5.26562L7.07031 11.7422C7.5625 12.2617 8.41016 12.2617 8.90234 11.7422L10.707 9.9375H14.5625V13.4375ZM12.1562 11.6875C12.1562 12.0703 12.4297 12.3438 12.8125 12.3438C13.168 12.3438 13.4688 12.0703 13.4688 11.6875C13.4688 11.332 13.168 11.0312 12.8125 11.0312C12.4297 11.0312 12.1562 11.332 12.1562 11.6875Z" fill="#06038D"/>
</svg>
