<svg width="26" height="20" viewBox="0 0 26 20" fill="none" xmlns="http://www.w3.org/2000/svg">
<path d="M23.5625 0.5H2.4375C1.06641 0.5 0 1.61719 0 2.9375V17.5625C0 18.9336 1.06641 20 2.4375 20H23.5625C24.8828 20 26 18.9336 26 17.5625V2.9375C26 1.61719 24.8828 0.5 23.5625 0.5ZM23.2578 17.5625H2.74219C2.53906 17.5625 2.4375 17.4609 2.4375 17.2578V3.24219C2.4375 3.08984 2.53906 2.9375 2.74219 2.9375H23.2578C23.4102 2.9375 23.5625 3.08984 23.5625 3.24219V17.2578C23.5625 17.4609 23.4102 17.5625 23.2578 17.5625ZM6.5 4.96875C5.33203 4.96875 4.46875 5.88281 4.46875 7C4.46875 8.16797 5.33203 9.03125 6.5 9.03125C7.61719 9.03125 8.53125 8.16797 8.53125 7C8.53125 5.88281 7.61719 4.96875 6.5 4.96875ZM4.875 15.125H21.125V11.0625L16.6562 6.64453C16.4023 6.39062 16.0469 6.39062 15.793 6.64453L9.75 12.6875L7.71875 10.707C7.46484 10.4531 7.10938 10.4531 6.85547 10.707L4.875 12.6875V15.125Z" fill="#656667"/>
</svg>
