<svg width="96" height="96" viewBox="0 0 96 96" fill="none" xmlns="http://www.w3.org/2000/svg">
<path d="M96 91.9999H0V95.9999H96V91.9999Z" fill="#06038D"/>
<path d="M70 68C67.231 68 64.5243 67.1789 62.222 65.6406C59.9197 64.1022 58.1253 61.9157 57.0657 59.3576C56.006 56.7994 55.7288 53.9845 56.269 51.2687C56.8092 48.553 58.1425 46.0584 60.1005 44.1005C62.0584 42.1426 64.553 40.8092 67.2687 40.269C69.9844 39.7288 72.7994 40.0061 75.3575 41.0657C77.9157 42.1253 80.1022 43.9197 81.6405 46.222C83.1789 48.5243 84 51.2311 84 54C84 57.713 82.525 61.274 79.8995 63.8995C77.274 66.525 73.713 68 70 68ZM70 44C68.0222 44 66.0888 44.5865 64.4443 45.6853C62.7998 46.7841 61.5181 48.3459 60.7612 50.1732C60.0043 52.0004 59.8063 54.0111 60.1921 55.9509C60.578 57.8907 61.5304 59.6725 62.9289 61.0711C64.3274 62.4696 66.1093 63.422 68.0491 63.8078C69.9889 64.1937 71.9995 63.9957 73.8268 63.2388C75.6541 62.4819 77.2159 61.2002 78.3147 59.5557C79.4135 57.9112 80 55.9778 80 54C80 51.3478 78.9464 48.8043 77.071 46.9289C75.1957 45.0536 72.6521 44 70 44Z" fill="#06038D"/>
<path d="M70 96C69.5512 96.003 69.1145 95.8551 68.76 95.58C67.76 94.78 44 76 44 54C44 47.1044 46.7392 40.4912 51.6152 35.6152C56.4911 30.7393 63.1043 28 70 28C76.8956 28 83.5088 30.7393 88.3847 35.6152C93.2607 40.4912 95.9999 47.1044 95.9999 54C95.9999 76 72.24 94.78 71.24 95.58C70.8854 95.8551 70.4487 96.003 70 96ZM70 32C64.1652 32 58.5694 34.3178 54.4436 38.4436C50.3178 42.5694 48 48.1652 48 54C48 71.28 65.2 87.26 70 91.4C74.8 87.28 92 71.4 92 54C92 48.1652 89.6821 42.5694 85.5563 38.4436C81.4305 34.3178 75.8347 32 70 32Z" fill="#06038D"/>
<path d="M38 94H34V2C34 1.46957 34.2107 0.960859 34.5858 0.585786C34.9609 0.210714 35.4696 0 36 0L76 0C76.5304 0 77.0391 0.210714 77.4142 0.585786C77.7893 0.960859 78 1.46957 78 2V26H74V4H38V94Z" fill="#06038D"/>
<path d="M10 94H6V24C6 23.4696 6.21071 22.9609 6.58579 22.5858C6.96086 22.2107 7.46957 22 8 22H32V26H10V94Z" fill="#06038D"/>
<path d="M30 81.9999H14V85.9999H30V81.9999Z" fill="#06038D"/>
<path d="M30 72H14V76H30V72Z" fill="#06038D"/>
<path d="M30 62H14V66H30V62Z" fill="#06038D"/>
<path d="M30 52H14V56H30V52Z" fill="#06038D"/>
<path d="M30 42H14V46H30V42Z" fill="#1E0F00"/>
<path d="M30 32H14V36H30V32Z" fill="#1E0F00"/>
<path d="M54 8H50V12H54V8Z" fill="#1E0F00"/>
<path d="M46 8H42V12H46V8Z" fill="#1E0F00"/>
<path d="M62 8H58V12H62V8Z" fill="#1E0F00"/>
<path d="M70 8H66V12H70V8Z" fill="#1E0F00"/>
<path d="M54 16H50V20H54V16Z" fill="#1E0F00"/>
<path d="M46 16H42V20H46V16Z" fill="#1E0F00"/>
<path d="M62 16H58V20H62V16Z" fill="#1E0F00"/>
<path d="M70 16H66V20H70V16Z" fill="#1E0F00"/>
<path d="M54 24H50V28H54V24Z" fill="#1E0F00"/>
<path d="M46 24H42V28H46V24Z" fill="#1E0F00"/>
<path d="M46 32H42V36H46V32Z" fill="#1E0F00"/>
<path d="M46 73.9999H42V77.9999H46V73.9999Z" fill="#1E0F00"/>
<path d="M46 81.9999H42V85.9999H46V81.9999Z" fill="#1E0F00"/>
<path d="M54 81.9999H50V85.9999H54V81.9999Z" fill="#1E0F00"/>
</svg>
