<svg width="60" height="60" viewBox="0 0 60 60" fill="none" xmlns="http://www.w3.org/2000/svg">
<g clip-path="url(#clip0_1655:8854)">
<path d="M34.0775 30.1449L9.8125 54.4099C8.87198 55.3504 7.59636 55.8788 6.26625 55.8788C4.93615 55.8788 3.66053 55.3504 2.72 54.4099C1.77948 53.4693 1.2511 52.1937 1.2511 50.8636C1.2511 49.5335 1.77948 48.2579 2.72 47.3174L26.985 23.0524" stroke="#332F30" stroke-width="3.2" stroke-linecap="round" stroke-linejoin="round"/>
<path d="M55.355 21.2774C55.2388 21.1607 55.1007 21.068 54.9486 21.0047C54.7966 20.9415 54.6335 20.909 54.4687 20.909C54.304 20.909 54.1409 20.9415 53.9888 21.0047C53.8367 21.068 53.6987 21.1607 53.5825 21.2774C52.9756 21.8999 52.1714 22.2921 51.3073 22.3871C50.4432 22.4822 49.5729 22.274 48.8453 21.7983C48.1177 21.3226 47.578 20.6089 47.3185 19.7792C47.0589 18.9495 47.0957 18.0555 47.4225 17.2499C47.5998 16.7955 47.6413 16.2994 47.5418 15.8218C47.4424 15.3443 47.2064 14.9059 46.8625 14.5599C44.7975 12.4899 41.175 8.86994 41.13 8.91494C37.954 6.00634 33.8537 4.31138 29.551 4.12846C25.2482 3.94554 21.0189 5.28638 17.6075 7.91494C17.3937 8.07478 17.2368 8.29884 17.1595 8.55432C17.0823 8.8098 17.0889 9.08329 17.1783 9.33476C17.2677 9.58624 17.4353 9.80249 17.6565 9.95187C17.8776 10.1013 18.1408 10.1759 18.4075 10.1649C20.3163 10.0776 22.2224 10.39 24.0034 11.0823C25.7845 11.7746 27.4012 12.8314 28.75 14.1849C30.4725 15.9099 32.05 17.9824 30.3275 19.7049L26.9775 23.0524L34.07 30.1449L37.6175 26.5974C38.323 25.8923 39.2797 25.4963 40.2771 25.4965C41.2746 25.4968 42.2311 25.8932 42.9362 26.5987C43.6414 27.3042 44.0374 28.2609 44.0372 29.2583C44.0369 30.2558 43.6405 31.2123 42.935 31.9174C42.8182 32.0336 42.7255 32.1717 42.6623 32.3238C42.5991 32.4759 42.5665 32.639 42.5665 32.8037C42.5665 32.9684 42.5991 33.1315 42.6623 33.2836C42.7255 33.4357 42.8182 33.5738 42.935 33.6899L45.595 36.3499C45.8274 36.5839 46.1037 36.7696 46.4081 36.8963C46.7125 37.023 47.039 37.0882 47.3687 37.0882C47.6985 37.0882 48.0249 37.023 48.3294 36.8963C48.6338 36.7696 48.9101 36.5839 49.1425 36.3499L58.0075 27.4849C58.2414 27.2526 58.4271 26.9762 58.5538 26.6718C58.6805 26.3674 58.7457 26.0409 58.7457 25.7112C58.7457 25.3815 58.6805 25.055 58.5538 24.7506C58.4271 24.4462 58.2414 24.1698 58.0075 23.9374L55.355 21.2774Z" stroke="#332F30" stroke-width="3.2" stroke-linecap="round" stroke-linejoin="round"/>
<path d="M53.5825 21.2799L42.9425 31.9174" stroke="#332F30" stroke-width="3.2" stroke-linecap="round" stroke-linejoin="round"/>
</g>
<defs>
<clipPath id="clip0_1655:8854">
<rect width="60" height="60" fill="white"/>
</clipPath>
</defs>
</svg>
