<svg width="67" height="38" viewBox="0 0 67 38" fill="none" xmlns="http://www.w3.org/2000/svg">
<path fill-rule="evenodd" clip-rule="evenodd" d="M12.3371 0V10.9016H9.54176V4.58579H9.48132L7.026 10.9016H5.31105L2.85573 4.58579H2.79529V10.9016H0V0H3.70187L6.14208 6.48961H6.20252L8.63518 0H12.3371ZM24.4626 10.9016H21.0478L20.4812 8.73339H17.157L16.5904 10.9016H13.3267L16.8851 0H20.9042L24.4626 10.9016ZM18.8493 2.51576H18.7889L17.7388 6.4745H19.8994L18.8493 2.51576ZM25.4447 0V10.9016H30.106C33.4075 10.9016 35.3566 8.86183 35.3566 5.37149C35.3566 1.88116 33.4151 0 30.106 0H25.4447ZM28.6479 2.54598H29.6527C31.1864 2.54598 32.093 3.53567 32.093 5.37149C32.093 7.38108 31.2544 8.35565 29.6527 8.35565H28.6479V2.54598ZM39.814 8.35565H44.3016V10.9016H36.6107V0H44.3016V2.54598H39.814V4.30626H44.022V6.60293H39.814V8.35565ZM51.9471 10.9016V0H48.7438V10.9016H51.9471ZM56.48 5.15996V10.9016H53.458V0H55.9436L60.1516 5.65102H60.2121V0H63.234V10.9016H60.7787L56.5404 5.15996H56.48ZM32.9454 37.5534C26.9715 37.5534 23.0261 34.8859 23.0101 30.1738H29.2396C29.4952 31.5635 31.1085 32.3622 33.0253 32.3622C35.0539 32.3622 36.2998 31.5316 36.2998 30.3975C36.2998 29.3113 35.4053 28.8481 32.8176 28.3849L30.5015 27.9696C25.9172 27.1549 23.4095 24.8388 23.4095 21.2609C23.4095 16.6287 27.4027 13.7056 32.8815 13.7056C39.0471 13.7056 42.4973 16.5648 42.5293 21.1171H36.2998C36.2518 19.7115 34.8143 18.8968 32.9614 18.8968C31.0766 18.8968 30.1182 19.7274 30.1182 20.7657C30.1182 21.8039 31.1085 22.2991 33.4086 22.7144L35.7247 23.1297C40.6764 24.0242 43.0085 26.0528 43.0085 29.7905C43.0085 34.5345 39.3027 37.5534 32.9454 37.5534ZM0.13668 14.1049H6.90927V28.1932C6.90927 30.6211 8.10725 31.9469 10.2956 31.9469C12.4839 31.9469 13.6819 30.6211 13.6819 28.1932V14.1049H20.4545V28.9439C20.4545 34.1991 16.3813 37.5534 10.2956 37.5534C4.20982 37.5534 0.13668 34.1991 0.13668 28.9439V14.1049ZM59.7802 37.1541H67L59.4767 14.1049H50.979L43.4557 37.1541H50.3561L51.5541 32.5698H58.5822L59.7802 37.1541ZM55.2852 18.9541L56.4854 22.407L60.1402 22.4815L57.2272 24.69L58.2857 28.189L55.2852 26.101L52.2846 28.189L53.3431 24.69L50.4301 22.4815L54.0849 22.407L55.2852 18.9541Z" fill="#332F30"/>
</svg>
